<?xml version="1.0" encoding="UTF-8" standalone="no"?>
<svg
   xmlns:dc="http://purl.org/dc/elements/1.1/"
   xmlns:cc="http://creativecommons.org/ns#"
   xmlns:rdf="http://www.w3.org/1999/02/22-rdf-syntax-ns#"
   xmlns:svg="http://www.w3.org/2000/svg"
   xmlns="http://www.w3.org/2000/svg"
   xmlns:sodipodi="http://sodipodi.sourceforge.net/DTD/sodipodi-0.dtd"
   xmlns:inkscape="http://www.inkscape.org/namespaces/inkscape"
   width="32.033352"
   height="31.665945"
   viewBox="0 0 8.4754912 8.3782815"
   version="1.1"
   id="svg8"
   sodipodi:docname="logo.svg"
   inkscape:version="1.0.2 (1.0.2+r75+1)">
  <sodipodi:namedview
     pagecolor="#ffffff"
     bordercolor="#666666"
     borderopacity="1"
     objecttolerance="10"
     gridtolerance="10"
     guidetolerance="10"
     inkscape:pageopacity="0"
     inkscape:pageshadow="2"
     inkscape:window-width="1366"
     inkscape:window-height="708"
     id="namedview80"
     showgrid="false"
     inkscape:zoom="8"
     inkscape:cx="33.768192"
     inkscape:cy="16.777821"
     inkscape:window-x="0"
     inkscape:window-y="0"
     inkscape:window-maximized="1"
     inkscape:current-layer="g1139" />
  <defs
     id="defs2" />
  <metadata
     id="metadata5">
    <rdf:RDF>
      <cc:Work
         rdf:about="">
        <dc:format>image/svg+xml</dc:format>
        <dc:type
           rdf:resource="http://purl.org/dc/dcmitype/StillImage" />
        <dc:title />
      </cc:Work>
    </rdf:RDF>
  </metadata>
  <g
     id="layer1"
     transform="translate(-105.06702,-146.695)">
    <g
       id="g1050"
       transform="translate(3.7498311,2.6691835)">
      <g
         id="g1139"
         transform="translate(-0.19884899,0.25655457)">
        <path
           id="path1062"
           style="color:#000000;font-style:normal;font-variant:normal;font-weight:normal;font-stretch:normal;font-size:medium;line-height:normal;font-family:sans-serif;font-variant-ligatures:normal;font-variant-position:normal;font-variant-caps:normal;font-variant-numeric:normal;font-variant-alternates:normal;font-variant-east-asian:normal;font-feature-settings:normal;font-variation-settings:normal;text-indent:0;text-align:start;text-decoration:none;text-decoration-line:none;text-decoration-style:solid;text-decoration-color:#000000;letter-spacing:normal;word-spacing:normal;text-transform:none;writing-mode:lr-tb;direction:ltr;text-orientation:mixed;dominant-baseline:auto;baseline-shift:baseline;text-anchor:start;white-space:normal;shape-padding:0;shape-margin:0;inline-size:0;clip-rule:nonzero;display:inline;overflow:visible;visibility:visible;opacity:1;isolation:auto;mix-blend-mode:normal;color-interpolation:sRGB;color-interpolation-filters:linearRGB;solid-color:#000000;solid-opacity:1;vector-effect:none;fill:#6e706f;fill-opacity:1;fill-rule:nonzero;stroke:none;stroke-width:0.03175;stroke-linecap:butt;stroke-linejoin:miter;stroke-miterlimit:4;stroke-dasharray:none;stroke-dashoffset:0;stroke-opacity:1;color-rendering:auto;image-rendering:auto;shape-rendering:auto;text-rendering:auto;enable-background:accumulate;stop-color:#000000;stop-opacity:1"
           d="m 103.98615,152.13628 c -0.60686,-0.10646 -1.15063,-0.43759 -1.61834,-0.8358 -0.25795,-0.006 -0.51903,0.0165 -0.77424,-0.0244 0.12082,-0.38815 0.40286,-0.70981 0.5844,-1.07368 0.14082,-0.15179 0.35948,-0.90712 0.45197,-0.37041 0.26982,0.66535 0.88205,1.1933 1.57848,1.34145 0.36538,0.10368 0.77746,0.0808 1.12646,-0.0542 0.42007,-0.10496 0.77647,-0.42604 1.01126,-0.78271 0.27522,-0.27298 0.19928,-0.80308 0.47054,-0.99355 0.26275,-0.0221 0.52673,-0.0228 0.79009,-0.0338 0.0475,0.30846 -0.0704,0.62604 -0.16,0.91258 -0.1613,0.54144 -0.56199,0.97148 -0.96242,1.35553 -0.54998,0.39082 -1.22604,0.63439 -1.91091,0.60828 -0.19618,-0.004 -0.39456,-0.0137 -0.58729,-0.0493 z m 4.13901,-0.71227 c 0.4157,-0.4747 0.63887,-1.14251 0.49951,-1.76657 -0.032,-0.38177 -0.23845,-0.73533 -0.46387,-1.04385 -0.51392,-0.64688 -1.44112,-0.86576 -2.20616,-0.57943 -0.38375,0.18246 -0.55279,-0.50644 -0.66419,-0.74735 0.83344,-0.44159 1.87785,-0.45592 2.71666,-0.0165 0.61898,0.32339 1.1354,0.85593 1.40382,1.50472 0.25201,0.50528 0.30338,1.08316 0.27748,1.64641 -0.17697,0.41042 0.10641,0.78444 0.29256,1.12947 0.0917,0.14028 -0.23169,0.0342 -0.3209,0.0671 -0.5701,0 -1.14019,0 -1.71029,0 0.0584,-0.0646 0.11761,-0.12973 0.17538,-0.19398 z m -3.39426,-1.40342 c -0.90808,-0.56977 -1.45007,-1.67756 -1.31866,-2.74621 0.0227,-0.48052 0.20303,-0.93236 0.43632,-1.35006 0.3818,-0.65677 1.02586,-1.12175 1.7306,-1.38118 0.30009,-0.08 0.38233,-0.74901 0.62269,-0.66575 0.29163,0.55095 0.63266,1.07576 0.91744,1.62952 -0.35081,0.0155 -0.9007,-0.0964 -1.30527,0.082 -0.71354,0.26731 -1.30389,0.91952 -1.43813,1.66971 -0.0407,0.46808 -0.008,0.96396 0.30289,1.34117 0.16345,0.23985 0.37581,0.4387 0.57523,0.64751 -0.14765,0.26092 -0.26039,0.54605 -0.44256,0.78401 -10e-4,0.0301 -0.10872,-0.0173 -0.0806,-0.0107 z" />
        <path
           id="path1060"
           style="fill:#e52631;stroke-width:0.03175"
           d="m 108.03443,151.58655 c 0.25267,-0.37668 0.56181,-0.75518 0.60372,-1.23358 0.20618,-1.10585 -0.62305,-2.34987 -1.77751,-2.43554 -0.3862,-0.0548 -0.75699,0.0878 -1.12661,0.1615 -0.14126,-0.28244 -0.73276,-0.80398 -0.15699,-0.92241 1.06091,-0.42878 2.36199,-0.17518 3.15941,0.65433 0.44305,0.39035 0.71475,0.95466 0.8696,1.50525 0.0798,0.40486 0.1565,0.84096 0.0412,1.25103 -0.12341,0.38063 0.26432,0.69708 0.29125,1.01142 -0.60836,0.0484 -1.22323,0.0373 -1.83358,0.0214 l -0.0703,-0.0134 z m -3.30353,-1.56596 c -0.90808,-0.56977 -1.45007,-1.67756 -1.31866,-2.74621 0.0227,-0.48052 0.20303,-0.93236 0.43632,-1.35006 0.3818,-0.65677 1.02586,-1.12175 1.7306,-1.38118 0.30009,-0.08 0.38233,-0.74901 0.62269,-0.66575 0.29163,0.55095 0.63266,1.07576 0.91744,1.62952 -0.35081,0.0155 -0.9007,-0.0964 -1.30527,0.082 -0.71354,0.26731 -1.30389,0.91952 -1.43813,1.66971 -0.0407,0.46808 -0.008,0.96396 0.30289,1.34117 0.16345,0.23985 0.37581,0.4387 0.57523,0.64751 -0.14765,0.26092 -0.26039,0.54605 -0.44256,0.78401 -10e-4,0.0301 -0.10872,-0.0173 -0.0806,-0.0107 z" />
        <path
           id="path1058"
           style="fill:#eb1a22;stroke-width:0.03175"
           d="m 108.03443,151.58655 c 0.25267,-0.37668 0.56181,-0.75518 0.60372,-1.23358 0.20618,-1.10585 -0.62305,-2.34987 -1.77751,-2.43554 -0.3862,-0.0548 -0.75699,0.0878 -1.12661,0.1615 -0.14126,-0.28244 -0.73276,-0.80398 -0.15699,-0.92241 1.06091,-0.42878 2.36199,-0.17518 3.15941,0.65433 0.44305,0.39035 0.71475,0.95466 0.8696,1.50525 0.0798,0.40486 0.1565,0.84096 0.0412,1.25103 -0.12341,0.38063 0.26432,0.69708 0.29125,1.01142 -0.60836,0.0484 -1.22323,0.0373 -1.83358,0.0214 l -0.0703,-0.0134 z m -3.42936,-1.70682 c -0.41464,-0.32107 -0.75537,-0.73457 -0.94792,-1.22592 -0.25827,-0.52337 -0.28156,-1.14509 -0.18109,-1.71228 0.1179,-0.41106 0.29739,-0.80359 0.52739,-1.16392 0.32692,-0.4448 0.74616,-0.82662 1.26154,-1.03857 0.44392,-0.0863 0.61042,-0.46679 0.87693,-0.76483 0.26953,0.23375 0.3912,0.61299 0.59101,0.91058 0.10746,0.23426 0.55741,0.71999 0.0313,0.56843 -0.53366,-0.0766 -1.08433,0.0874 -1.52506,0.38326 -0.32424,0.25316 -0.61582,0.54759 -0.76343,0.93997 -0.26156,0.69121 -0.184,1.54847 0.3478,2.09475 0.26031,0.22177 0.44662,0.48769 0.15748,0.78071 -0.10962,0.13425 -0.16139,0.45359 -0.37598,0.22782 z" />
        <path
           id="path1056"
           style="fill:#282728;stroke-width:0.03175"
           d="m 108.03443,151.58655 c 0.25267,-0.37668 0.56181,-0.75518 0.60372,-1.23358 0.20618,-1.10585 -0.62305,-2.34987 -1.77751,-2.43554 -0.3862,-0.0548 -0.75699,0.0878 -1.12661,0.1615 -0.14126,-0.28244 -0.73276,-0.80398 -0.15699,-0.92241 1.06091,-0.42878 2.36199,-0.17518 3.15941,0.65433 0.44305,0.39035 0.71475,0.95466 0.8696,1.50525 0.0798,0.40486 0.1565,0.84096 0.0412,1.25103 -0.12341,0.38063 0.26432,0.69708 0.29125,1.01142 -0.60836,0.0484 -1.22323,0.0373 -1.83358,0.0214 l -0.0703,-0.0134 z" />
        <path
           id="path1054"
           style="fill:#201d1e;stroke-width:0.03175"
           d="m 108.21364,151.57825 c 0.0746,-0.35899 0.49661,-0.65827 0.46583,-1.10055 0.15594,-0.82994 -0.12522,-1.77681 -0.86351,-2.2457 -0.4796,-0.33043 -1.11528,-0.37269 -1.67291,-0.23593 -0.41452,0.26321 -0.67834,-0.40303 -0.71604,-0.68539 0.59722,-0.36865 1.35454,-0.39564 2.02595,-0.24554 0.41485,0.13826 0.79314,0.36307 1.14386,0.61754 0.32629,0.26979 0.56898,0.59883 0.75839,0.96531 0.1897,0.31935 0.30856,0.66991 0.36051,1.03016 0.0821,0.42751 -0.0564,0.8575 -0.0325,1.28251 0.0818,0.25596 0.49255,0.75557 -0.0704,0.63612 -0.46619,8e-4 -0.93402,0.0142 -1.39917,-0.0185 z" />
      </g>
    </g>
  </g>
</svg>
